<?xml version="1.0" encoding="UTF-8"?>
<!DOCTYPE svg PUBLIC "-//W3C//DTD SVG 1.0//EN" "http://www.w3.org/TR/2001/REC-SVG-20010904/DTD/svg10.dtd">
<!-- Creator: CorelDRAW -->
<svg xmlns="http://www.w3.org/2000/svg" xml:space="preserve" width="86.6986mm" height="86.6986mm" version="1.0" style="shape-rendering:geometricPrecision; text-rendering:geometricPrecision; image-rendering:optimizeQuality; fill-rule:evenodd; clip-rule:evenodd"
viewBox="0 0 8669.86 8669.86"
 xmlns:xlink="http://www.w3.org/1999/xlink"
 xmlns:xodm="http://www.corel.com/coreldraw/odm/2003">
 <defs>
  <style type="text/css">
   <![CDATA[
    .fil0 {fill:#029049}
   ]]>
  </style>
 </defs>
 <g id="Layer_x0020_1">
  <metadata id="CorelCorpID_0Corel-Layer"/>
  <g id="_2666228542544">
   <path class="fil0" d="M3388.45 5589.66c252.11,-78.18 333.1,300.2 114.17,361.13 -258.22,71.86 -340.2,-291.03 -114.17,-361.13zm1991.24 2269.8c-13.02,-422.17 89.03,-612.4 303.93,-810.66 167.21,-154.27 487.62,-286.56 731.05,-394.61 263.22,-116.83 848.77,-477.81 1054.37,-698.26l109.16 -102.76c26.85,-27.1 43.63,-47.39 69.26,-75.1 20.84,-22.53 50.08,-48.75 64.73,-72.27 -28.36,138.86 -309.94,613.67 -387.31,724.1 -79.88,114.02 -209.64,283.65 -309.37,384.25 -83.44,84.17 -94.92,112.55 -213.54,218.52 -444.93,397.45 -827.5,632.11 -1422.28,826.79zm-3191.21 -5215.66c100.6,-20.99 196.7,51.96 219.14,143.92 29.49,120.89 -44.98,201.37 -143.23,223.26 -247.24,55.11 -334.32,-313.25 -75.91,-367.18zm1366.6 -603.38c253.5,-66.43 365.92,291.32 119.62,383.16 -233.79,87.17 -358.23,-320.64 -119.62,-383.16zm-2850.37 2732.03c-39.7,-444.12 -32.32,-808.38 64.17,-1233.36 123.38,-543.47 331.95,-950.58 628.57,-1377.66 70.21,-101.09 150.1,-191.44 224.01,-283.97 123.81,-154.99 266.43,-274.54 421.07,-408.37 115.8,-100.22 249.79,-189.64 388.91,-279.66 604.93,-391.42 1379.2,-591.4 2125.46,-559.79 651.89,27.61 1267.36,206.3 1806.03,540.51 61.03,37.87 146.3,103.87 201.16,129.39 168.2,-191.17 475.55,-278.07 345.24,-380.1 -252.34,-197.59 -519.78,-341.23 -838.02,-474.66 -1113.64,-466.95 -2389.75,-415.03 -3490.98,71.43 -238.33,105.28 -465.05,254.76 -661.11,388.76l-225.44 172.53c-21.44,18.34 -45.74,40.65 -68.5,58.55 -148.67,116.97 -404.88,396.45 -521.09,537.73 -160.07,194.61 -293.68,410.49 -422.98,627.12 -63.88,107.04 -120.73,232.95 -173.64,351.59 -219.74,492.71 -357.08,1136.17 -349.79,1754.14 11.43,968.94 323.36,1820.36 883.17,2533.67l342.57 385.73c52.1,63.48 145,133.25 210.09,188.37 131.98,111.73 259.81,213.82 407.26,312.42 718.26,480.3 1493.19,728.33 2429.03,721.42 1110.69,-8.21 2185.78,-510.34 2919.67,-1281.24 768.32,-807.04 1205.85,-1892.83 1159.43,-3046.77 -5.86,-145.49 -37.62,-347.98 -23.43,-482.61 50.26,-476.76 12,-980.15 -81.31,-1441.98 -57.29,-283.56 -131.07,-571.66 -218.28,-831.88 -45.61,-136.09 -224.74,-670.48 -293.21,-755.01l-234.46 237.36 -255.55 210.1c-321.93,250.05 -605.04,401.82 -944.59,613.21 -381.17,237.31 -576.65,317.83 -952.23,614.36 -33.85,26.73 -55.09,45.73 -88.05,72.65l-123.95 112.99c-206.35,183.97 -382.99,391.37 -537.95,622.8 -478.03,713.95 -611.81,1671.63 -360.3,2509.49 59.45,198.03 134.15,387.71 221.53,566.35l107.27 197.17c17.02,32.21 37.14,74.71 65.28,94.12 20.21,-204.58 106.46,-478.75 174.94,-653.33 189.98,-484.29 376.67,-773.57 675.01,-1195.67l636.64 -811.22c126.03,-148.94 240.54,-308.57 364.42,-465.44 124.39,-157.53 233.62,-319.7 351.96,-477.74 69.48,-92.78 313.81,-491.08 324.48,-504 -31.07,117.84 -85.25,250.77 -129.31,361.38 -493.26,1238.29 -1199.28,1743.94 -1694.13,2717.17 -241.52,475 -385.8,955.1 -455.1,1500.78 -18.68,147.06 -30.39,308.23 -31.79,456.81 -1.68,177.05 23.68,356.36 23.01,456.13 -163.71,20.07 -306.62,52.49 -481.37,61.47 -754.31,38.78 -1523.64,-152.07 -2145.73,-547.73 -217.14,-138.1 -355.72,-251.88 -539.15,-408.87 -26.22,-22.44 -52.05,-40.3 -70.49,-67.7 122.18,1.07 622.87,13.65 703.28,-11.73 50.32,-15.87 74.55,-37.68 104.08,-74.33 54.97,-68.24 198.49,-194.61 265.74,-259.24 591.27,-568.21 271.42,-359.54 617.9,-388.28 280.43,-23.26 506.9,-292.51 426.84,-610.34 -103.39,-410.44 -622.62,-469.68 -853.14,-164.47 -44.79,59.3 -89.81,163.43 -94.5,262.47 -7.61,160.73 27.95,165.91 63.3,290.84 -73.53,48.14 -141.86,143.61 -212.15,202.42l-334.97 342.29c-78.6,76.73 -61.94,82.64 -183.21,82.75 -254.09,0.23 -569.96,-12.29 -811.14,2.61 -85.53,-103.35 -169.8,-223.05 -245.61,-337.84 -34.95,-52.91 -199.96,-315.52 -207.83,-365.23 139.47,-4.89 642.91,13.53 728.93,-24.26 35.52,-15.61 246.99,-227.21 291.29,-276.47 30.9,-34.37 58.39,-62.21 90.76,-95.64 63.79,-65.84 125.53,-125.71 191.96,-189.15 34.48,-32.93 60.37,-53.22 93.69,-92.46 131.28,-154.58 320.33,-322.03 467.79,-463.5 256,-245.6 498.31,-498.27 748.87,-749.78 106.14,-106.54 143.96,-109.5 142.46,-239.59 -4.3,-372.28 4.68,-745.58 3.15,-1117.63 87.41,-64.91 153.73,-63.09 240.19,-204.81 57.28,-93.89 89.06,-232.82 64.24,-365.57 -41.31,-220.91 -229.99,-401.91 -486.12,-399.94 -412.32,3.18 -604.16,472.79 -404.3,772.89 87.91,132 153.46,125.72 245.62,197.43l-2.01 1033.24c0.92,80.92 -12.97,73.57 -54.3,115.25l-177.58 169.49c-84.72,88.52 -171.6,158.12 -250.27,257.71 -58.48,74.03 -262.1,258.52 -344.19,341.69 -228.99,232.02 -459.55,451.2 -689.44,682.09l-257.45 259c-38.8,39.38 -44.06,61.77 -106.22,61.59 -209.64,-0.63 -471.96,13.38 -674.83,-2.37 -54.52,-156.09 -119.35,-358 -148.28,-528.68 141.83,-0.5 282.16,-8.34 424.6,-9.7 170.68,-1.62 202.17,-72.67 276.87,-155.24l108.66 -111.09c34.76,-39.91 66.04,-71.18 101.43,-110.63 21.63,-24.1 33,-29.7 57.5,-52.33l261.14 -272.05c35.91,-37.99 66.05,-71.43 102.16,-109.82l110.23 -109.64c154.49,-160.77 203.08,-186.17 196.63,-450.98 -3.45,-141.82 0.46,-284.53 -2.1,-426.47 556.26,-259.29 329.27,-931.11 -162.7,-941.73 -241.32,-5.21 -440.28,194.07 -476.61,401.09 -42.13,240.1 121.77,495.25 308.54,541.85 -0.76,99.43 -0.47,198.74 -1.46,298.26 -2.69,272.85 37.63,211.59 -97.38,351.16 -25.42,26.28 -45.05,46.85 -70.41,73.56 -43.27,45.6 -98.92,112.74 -146.01,150.37 -93.29,74.57 -169.54,185.62 -259.17,265.57 -61.92,55.24 -112.75,131.51 -177.12,187.12 -222.36,192.13 44.85,153.23 -595.8,159.31z"/>
  </g>
 </g>
</svg>
