<?xml version="1.0" encoding="UTF-8"?>
<!DOCTYPE svg PUBLIC "-//W3C//DTD SVG 1.1//EN" "http://www.w3.org/Graphics/SVG/1.1/DTD/svg11.dtd">
<!-- Creator: CorelDRAW -->
<svg xmlns="http://www.w3.org/2000/svg" xml:space="preserve" width="210mm" height="297mm" version="1.1" style="shape-rendering:geometricPrecision; text-rendering:geometricPrecision; image-rendering:optimizeQuality; fill-rule:evenodd; clip-rule:evenodd"
viewBox="0 0 21000 29700"
 xmlns:xlink="http://www.w3.org/1999/xlink"
 xmlns:xodm="http://www.corel.com/coreldraw/odm/2003">
 <defs>
  <style type="text/css">
   <![CDATA[
    .fil3 {fill:#06120B}
    .fil1 {fill:#261106}
    .fil2 {fill:#89B632}
    .fil0 {fill:#A8DA45}
    .fil4 {fill:#D3ED94}
    .fil5 {fill:#ED8A8B}
    .fil6 {fill:#F7F7F8}
   ]]>
  </style>
 </defs>
 <g id="Layer_x0020_1">
  <metadata id="CorelCorpID_0Corel-Layer"/>
  <g id="_1389047095488">
   <path class="fil0" d="M11405.56 20137.58c-246.14,-612.99 969.37,-445.83 1155.09,-13.93 165.64,385.22 -220.95,428.27 -547.25,367.17 -123.49,-23.13 -562.12,-239.38 -607.84,-353.24zm-892.5 -1516.94c-146.76,-1375.17 1766.99,-1555.35 1953.68,-312.87 209.28,1392.87 -1824.94,1519.24 -1953.68,312.87zm-2406.8 0c-33.58,-130.02 -38.31,-734.72 196.56,-526.76 107.72,95.38 -23.08,416.78 149.79,661.7 93.78,132.87 323.55,241.48 572.24,191.91 354.51,-70.67 274.57,-260.78 405.26,-443.4 294.73,-411.89 362.55,561.66 -346.09,716.2 -485.82,105.95 -880.77,-224.26 -977.76,-599.65zm-3415.51 -441.35c175.65,-116.45 385.41,-284.95 781.69,-115.99 963.94,411 355.14,945.68 -287.17,681.22 -383.98,-158.09 -500.93,-268.92 -494.52,-565.23zm1023.59 -793.37c-120.53,-1463.58 1828.12,-1473.59 1924.74,-280.72 114.75,1416.82 -1826.86,1469.29 -1924.74,280.72zm7305.08 -402.23c-383.85,114.4 -518.89,-198.84 -338.13,-374.97 194.42,-189.43 454.98,5.45 338.13,374.97zm-1317.86 -1964.11c526.5,-286.16 1318.5,871.31 857.67,1187.07 -455.18,311.89 -1314.88,-938.56 -857.67,-1187.07zm-736.01 -258.08c-109.65,-308.46 94.67,-524.39 311.75,-348.43 167.37,135.68 88.04,474.84 -311.75,348.43zm-2905.06 -1549.38c-44.35,74.78 -818.59,296.25 -1007.19,379.94 -891.48,395.59 -1675.82,1138.58 -2167.31,2032.5 -1511.81,2749.64 -186.57,5861.28 3013.28,6929.91 1169.86,390.69 2367.13,405.83 3559.69,-0.88 326.41,-111.32 730.85,-395.92 974.25,-460.58 373.6,-112.25 1135.8,-1347.26 1348.41,-2045.07 -105.97,-138.35 30.81,-1095.05 33.2,-1462.64 2.87,-441.52 -75.3,-965.57 -185.79,-1369.58 -403.91,-1476.94 -1525.42,-2656.27 -2850.54,-3362.55 -864.35,-460.7 -1452.95,-512.88 -2542.75,-601.1l65.88 -56.39 -241.13 16.44z"/>
   <path class="fil1" d="M11276.35 23717.02c-92.01,260.51 -357.8,596.8 -504.68,720.46 -255.26,214.91 -776.78,174.78 -820.6,-151.84 -158.31,-90.85 -237.01,-379.08 -293.6,-549.77 106.93,-52.1 759.46,-206.24 958.36,-267.82 374.39,-115.92 612.06,-266.21 925.92,-380.46l-265.4 629.43zm2252.1 -2499.85l493.24 -1062.08c209.28,176.71 1105.7,2127.66 415.18,2224.87 -192.75,176.87 -606.19,-32.75 -754.84,-139.11 -229.34,-164.1 -343.79,-270.19 -529.22,-479.41 35.81,-89.48 300.06,-454.37 375.64,-544.27zm253.17 -1169.23c-212.61,697.81 -974.81,1932.82 -1348.41,2045.07 -298.25,507.4 -1616.91,1137.24 -2471.98,1326.13 -499.85,110.41 -1175.68,172.81 -1695.22,115.27 -291.31,-32.26 -1442.73,-365.09 -1511.94,-326.69 -118.18,273.12 518.36,344.67 728.54,432.09 -82.74,478.55 -530.83,1289.25 -1076.86,832.54 -273.46,-228.73 -755.34,-928.51 -776.84,-1441.99l319.08 -114.62c-30.48,-220.81 -425.97,-353.97 -581.77,-472.37 -200.18,-152.12 -407.38,-335.42 -561.81,-497.24 -1301.89,-1364.2 -1619.78,-2838.32 -1208.2,-4789.52 407.83,-1933.47 2252.74,-3801.8 4464.28,-3944.49l241.13 -16.44c1996.79,-139.53 3696.25,907.59 4470.5,1877.26 478.94,599.82 822.16,1176.09 1071.39,2100.14 310.71,1152.05 131.74,1801.6 -61.89,2874.86zm-11922.23 -3651.82c97.95,-552.1 1054.68,145.46 1161.44,277.99 170.16,211.21 380.48,214 299.29,589.15 -57.05,263.63 -96.62,521.37 -122.47,788.2l-44.04 914.46c-225.28,-128.46 -822.15,-749.62 -982.01,-1018.7 -159.64,-268.7 -620.27,-1195.12 -312.21,-1551.1zm9899.83 -4782.86c-213.28,142.96 -644.58,355.17 -868.82,500.23 79.02,-644.19 839.12,-1614.68 1169.93,-1814.98l364.07 -362.81c2121.42,-1506.1 4728.38,-1328.48 6813.17,147.5l-58.33 133.13c-181.52,646.68 -1190.03,2009.72 -1520.95,2183.19 -182.57,282.31 -947.83,776.01 -1422.61,957.74 -613.87,234.97 -1175.79,385.86 -1895.77,426.18 -688.35,38.55 -1395.98,-145.76 -1979.27,-379.81 -664.63,-266.69 -1004.99,-585.93 -1456.17,-866.94 91.5,-261.97 751.5,-583.77 1096.01,-686.54l468.59 -177.66c181.23,120.8 1617.41,1503.89 2027.25,1215.32 22.65,-245.13 -1362.16,-766.54 -1696.62,-1337.7l1688.76 -439.99c321.93,-67.49 305.45,-82.88 530.99,91.74 180.05,139.41 1621.53,1044.16 1823.59,815.03 151.49,-230.61 -1305.8,-611.15 -1596.51,-1022.95 406.79,-55.65 816.99,-108.17 1221.59,-155.19 449.88,-52.28 1198.83,-4.7 1097.52,-248 -207.06,-217.16 -1703.57,103.79 -2095.58,102.26 244.85,-455.22 1235.04,-1029.34 938.53,-1204.5 -193.2,-115.67 -1213.34,1150.84 -1360.94,1232.27 -14.42,7.96 -1939.01,429.79 -2145.91,481.21 164.72,-358.66 430.3,-698.63 644.22,-959.09 83.72,-101.93 382.45,-296.71 286.78,-437.14 -193.9,-284.61 -1036.5,1002.79 -1123.44,1152.53 -195.34,336.44 -70.07,402.77 -950.08,654.97zm-1878.94 -401.18c162.86,136.22 440.73,840.02 428.94,1117.77 -1470.93,211.58 -2779.39,-690.63 -3482.45,-1330.9 -735.03,-669.38 -1447.85,-1777.78 -1596.81,-3247.88 -43.21,-557.67 5.4,-2107.23 337.27,-2457.28 21.27,-357.14 605.29,-123.26 878.84,-53.21 1443.19,369.59 2759.66,1085.76 3571.33,2320.26 191.17,290.77 709.2,1173.46 707.15,1619.77 225.94,254.18 175.73,1465.37 163.92,1847.42 -4.85,398.58 -110.41,803.99 -286.93,1098.84l-402.98 -1020.15c-367.66,-592.6 -407.95,-505.69 -264.32,-1227.57 57.1,-286.98 230.63,-1381.08 30.71,-1532.49 -257.24,-78.3 -162.31,539.48 -186.91,812.52 -28.01,310.91 -99.13,609.52 -147.58,902.03 -225.9,-180.33 -381.03,-531.52 -561.07,-776.2 -197.36,-268.2 -357.21,-458.96 -568.35,-701.26 -295.88,-339.57 -173.98,-491.16 -224.56,-1042.41 -21.22,-231.24 -14.45,-976.5 -275.35,-968.53 -100.46,143.02 25.53,1203.8 35.62,1485.84 -295.51,-169.44 -1258.86,-1524.26 -1594.89,-1394.42 -102.46,345.03 1367.49,1364.6 1545.85,1792.5 -334.23,-9.17 -674.67,-89.36 -985.22,-172.29 -199.18,-53.19 -712.44,-320.21 -840.99,-200.38 -311.13,414.1 1994.88,592.08 2112.48,690.52 215.37,180.28 1033.88,1335.37 1186.33,1659.48 -418.25,57.16 -2020.64,-215.65 -2057.31,-196.72 -74.54,539.14 1795.97,434.33 2224.99,461.61l252.29 513.13zm357.85 1378.02l-233.93 498.91c-907.77,-19.96 -1320.75,-251.78 -2384.78,-56.81 -1302.2,238.6 -2522.03,1014.77 -3274.66,2015.44 -166.1,220.84 -380.64,492.07 -525.09,780.38 -92.91,185.47 -331.98,841.31 -430.26,929.16 -911.42,-1303.02 -2561.54,-901.59 -1593.49,999.57 278.73,547.39 673.96,960.78 1079.94,1284.63 435.22,347.19 257.77,124.86 419.63,742.47 222.69,849.64 718.99,1679.38 1275.36,2254.85 104.9,108.5 547.84,454.66 608.77,556.54 82.13,137.33 228.22,658.71 324.32,873.67 235.6,526.99 568.2,1186.72 1024.56,1339.72 639.86,214.52 1090.93,-608.96 1203.68,-1116.42l1666.67 99.77c235.75,420.47 326.76,899.03 829.81,1019.13 1070.41,255.54 1459.04,-1794.68 1735.27,-2003.57 209.29,-158.26 363.61,-248.39 538.49,-414.54 157.47,-149.61 344.63,-377.3 500.82,-453.3 248.45,237.77 695.49,780.08 1298.89,740.88 981.71,-63.78 498.96,-1504.49 213.53,-2120.39 -106.41,-229.61 -313.96,-504.68 -384.09,-675.37 -107.86,-262.57 716.04,-2587.15 -1098.08,-4861.95 -456.6,-572.56 -1437.27,-1452.83 -2432.53,-1724.93l170.55 -558.81c1468.04,1009.26 3104.37,1784.43 5341.1,918.04 900.85,-348.95 1559.66,-862.49 2076.24,-1416.17 237.95,-255.04 1285.49,-1688.29 1295.67,-2228.14 -250.86,-328.61 -1402.09,-845.93 -1951.76,-1041.34 -2033.82,-723.03 -4262.7,-241.49 -5724.95,1191.61 -226.37,221.85 -465.13,638.9 -687.64,851.4 103.45,-2036.31 -723.49,-3694.35 -1761.34,-4558.93 -926.31,-771.67 -1926.55,-1263.94 -3231.66,-1530.44 -739.49,-151 -704.18,-83.63 -902.26,558.63 -925.53,3001.08 672.37,6064.19 3606.04,6933.81 579.92,171.91 839.92,102.24 1407.18,172.5z"/>
   <path class="fil0" d="M12424.4 9935.7l-364.07 362.81c-141.6,451.82 -321.75,785.17 -301.11,1314.75 880.01,-252.2 754.74,-318.53 950.08,-654.97 86.94,-149.74 929.54,-1437.14 1123.44,-1152.53 95.67,140.43 -203.06,335.21 -286.78,437.14 -213.92,260.46 -479.5,600.43 -644.22,959.09 206.9,-51.42 2131.49,-473.25 2145.91,-481.21 147.6,-81.43 1167.74,-1347.94 1360.94,-1232.27 296.51,175.16 -693.68,749.28 -938.53,1204.5 392.01,1.53 1888.52,-319.42 2095.58,-102.26 101.31,243.3 -647.64,195.72 -1097.52,248 -404.6,47.02 -814.8,99.54 -1221.59,155.19 290.71,411.8 1748,792.34 1596.51,1022.95 -202.06,229.13 -1643.54,-675.62 -1823.59,-815.03 -225.54,-174.62 -209.06,-159.23 -530.99,-91.74l-1688.76 439.99c334.46,571.16 1719.27,1092.57 1696.62,1337.7 -409.84,288.57 -1846.02,-1094.52 -2027.25,-1215.32l-468.59 177.66c-35.69,290.91 1671.79,1185.04 2548.89,1185.77 475.42,0.39 1293.36,-51.59 1716.23,-170.28 289.67,-81.31 1246.87,-503.12 1392.69,-466.12 330.92,-173.47 1339.43,-1536.51 1520.95,-2183.19 -239.03,-10.12 -2018.58,-788.07 -3303.52,-994.18 -806.68,-129.39 -2050.91,125.52 -2754.96,419.7 -288.57,120.58 -391.14,215.42 -536.52,284.27 -212.1,100.45 -103.4,50.51 -159.84,9.58z"/>
   <path class="fil0" d="M5229.96 7751.07c110.29,52.59 285.97,566.23 361,708.13 397.77,752.3 763.28,1123.66 1370.48,1701.13 667.93,635.22 2622.69,1300.54 2918.84,1051.75l-252.29 -513.13c-429.02,-27.28 -2299.53,77.53 -2224.99,-461.61 36.67,-18.93 1639.06,253.88 2057.31,196.72 -152.45,-324.11 -970.96,-1479.2 -1186.33,-1659.48 -117.6,-98.44 -2423.61,-276.42 -2112.48,-690.52 128.55,-119.83 641.81,147.19 840.99,200.38 310.55,82.93 650.99,163.12 985.22,172.29 -178.36,-427.9 -1648.31,-1447.47 -1545.85,-1792.5 336.03,-129.84 1299.38,1224.98 1594.89,1394.42 -10.09,-282.04 -136.08,-1342.82 -35.62,-1485.84 260.9,-7.97 254.13,737.29 275.35,968.53 50.58,551.25 -71.32,702.84 224.56,1042.41 211.14,242.3 370.99,433.06 568.35,701.26 180.04,244.68 335.17,595.87 561.07,776.2 48.45,-292.51 119.57,-591.12 147.58,-902.03 24.6,-273.04 -70.33,-890.82 186.91,-812.52 199.92,151.41 26.39,1245.51 -30.71,1532.49 -143.63,721.88 -103.34,634.97 264.32,1227.57 242.44,-181.94 449.5,-810.27 638.32,-1090.44l51.59 1011.75c11.81,-382.05 62.02,-1593.24 -163.92,-1847.42l-26.57 99.11c-517.22,-1189.31 -1031.33,-2001.2 -2001.1,-2584.42 -409.43,-246.22 -1018.31,-619.84 -1498.9,-795.87 -223.79,-81.98 -1531.67,-533.03 -1630.75,-605.64 -331.87,350.05 -380.48,1899.61 -337.27,2457.28z"/>
   <path class="fil2" d="M12433.21 22093.01c-243.4,64.66 -647.84,349.26 -974.25,460.58 -1192.56,406.71 -2389.83,391.57 -3559.69,0.88 -3199.85,-1068.63 -4525.09,-4180.27 -3013.28,-6929.91 491.49,-893.92 1275.83,-1636.91 2167.31,-2032.5 188.6,-83.69 962.84,-305.16 1007.19,-379.94 -2211.54,142.69 -4056.45,2011.02 -4464.28,3944.49 -411.58,1951.2 -93.69,3425.32 1208.2,4789.52 154.43,161.82 361.63,345.12 561.81,497.24 155.8,118.4 551.29,251.56 581.77,472.37l-319.08 114.62c21.5,513.48 503.38,1213.26 776.84,1441.99 546.03,456.71 994.12,-353.99 1076.86,-832.54 -210.18,-87.42 -846.72,-158.97 -728.54,-432.09 69.21,-38.4 1220.63,294.43 1511.94,326.69 519.54,57.54 1195.37,-4.86 1695.22,-115.27 855.07,-188.89 2173.73,-818.73 2471.98,-1326.13z"/>
   <path class="fil2" d="M17658.29 12399.52c-145.82,-37 -1103.02,384.81 -1392.69,466.12 -422.87,118.69 -1240.81,170.67 -1716.23,170.28 -877.1,-0.73 -2584.58,-894.86 -2548.89,-1185.77 -344.51,102.77 -1004.51,424.57 -1096.01,686.54 451.18,281.01 791.54,600.25 1456.17,866.94 583.29,234.05 1290.92,418.36 1979.27,379.81 719.98,-40.32 1281.9,-191.21 1895.77,-426.18 474.78,-181.73 1240.04,-675.43 1422.61,-957.74z"/>
   <path class="fil2" d="M9880.28 11212.08c-296.15,248.79 -2250.91,-416.53 -2918.84,-1051.75 -607.2,-577.47 -972.71,-948.83 -1370.48,-1701.13 -75.03,-141.9 -250.71,-655.54 -361,-708.13 148.96,1470.1 861.78,2578.5 1596.81,3247.88 703.06,640.27 2011.52,1542.48 3482.45,1330.9 11.79,-277.75 -266.08,-981.55 -428.94,-1117.77z"/>
   <path class="fil3" d="M10824.5 18797.03c-39.54,-303.77 343.75,-359.14 409.34,-132.42 91.52,316.32 -374.4,400.85 -409.34,132.42zm858.28 -969.93c524.36,-180.26 732.94,563.69 310.4,745.18 -552.31,237.24 -789.28,-580.55 -310.4,-745.18zm-1169.72 793.54c128.74,1206.37 2162.96,1080 1953.68,-312.87 -186.69,-1242.48 -2100.44,-1062.3 -1953.68,312.87z"/>
   <path class="fil3" d="M6037.65 17684.21c-123.85,-446.31 259.38,-432.43 356.79,-290.15 136.75,199.76 -54.72,428.64 -356.79,290.15zm840.47 -1112.71c517.08,-166.7 693.78,606.78 242.28,758.19 -540.92,181.4 -788.11,-582.22 -242.28,-758.19zm-1163.78 814.42c97.88,1188.57 2039.49,1136.1 1924.74,-280.72 -96.62,-1192.87 -2045.27,-1182.86 -1924.74,280.72z"/>
   <path class="fil4" d="M5567.23 5293.79c99.08,72.61 1406.96,523.66 1630.75,605.64 480.59,176.03 1089.47,549.65 1498.9,795.87 969.77,583.22 1483.88,1395.11 2001.1,2584.42l26.57 -99.11c2.05,-446.31 -515.98,-1329 -707.15,-1619.77 -811.67,-1234.5 -2128.14,-1950.67 -3571.33,-2320.26 -273.55,-70.05 -857.57,-303.93 -878.84,53.21z"/>
   <path class="fil4" d="M13781.62 20047.94c193.63,-1073.26 372.6,-1722.81 61.89,-2874.86 -249.23,-924.05 -592.45,-1500.32 -1071.39,-2100.14 -774.25,-969.67 -2473.71,-2016.79 -4470.5,-1877.26l-65.88 56.39c1089.8,88.22 1678.4,140.4 2542.75,601.1 1325.12,706.28 2446.63,1885.61 2850.54,3362.55 110.49,404.01 188.66,928.06 185.79,1369.58 -2.39,367.59 -139.17,1324.29 -33.2,1462.64z"/>
   <path class="fil4" d="M12424.4 9935.7c56.44,40.93 -52.26,90.87 159.84,-9.58 145.38,-68.85 247.95,-163.69 536.52,-284.27 704.05,-294.18 1948.28,-549.09 2754.96,-419.7 1284.94,206.11 3064.49,984.06 3303.52,994.18l58.33 -133.13c-2084.79,-1475.98 -4691.75,-1653.6 -6813.17,-147.5z"/>
   <path class="fil0" d="M1859.39 16396.12c-113.91,517.84 887.99,1640.19 1338.26,1655.34 25.85,-266.83 65.42,-524.57 122.47,-788.2 81.19,-375.15 -129.13,-377.94 -299.29,-589.15 -106.76,-132.53 -1063.49,-830.09 -1161.44,-277.99z"/>
   <path class="fil0" d="M13528.45 21217.17c207.09,361.11 587.79,1027.16 908.42,1162.79 690.52,-97.21 -205.9,-2048.16 -415.18,-2224.87l-493.24 1062.08z"/>
   <path class="fil2" d="M3197.65 18051.46c-450.27,-15.15 -1452.17,-1137.5 -1338.26,-1655.34 -308.06,355.98 152.57,1282.4 312.21,1551.1 159.86,269.08 756.73,890.24 982.01,1018.7l44.04 -914.46z"/>
   <path class="fil4" d="M11701.56 15019.58c-457.21,248.51 402.49,1498.96 857.67,1187.07 460.83,-315.76 -331.17,-1473.23 -857.67,-1187.07z"/>
   <path class="fil2" d="M9951.07 24285.64l1233.42 -592.4c108.84,-7.54 8.28,-50.03 91.86,23.78l265.4 -629.43c-313.86,114.25 -551.53,264.54 -925.92,380.46 -198.9,61.58 -851.43,215.72 -958.36,267.82 56.59,170.69 135.29,458.92 293.6,549.77z"/>
   <path class="fil5" d="M4690.75 18179.29c-6.41,296.31 110.54,407.14 494.52,565.23 642.31,264.46 1251.11,-270.22 287.17,-681.22 -396.28,-168.96 -606.04,-0.46 -781.69,115.99z"/>
   <path class="fil2" d="M10198.56 11106.72l402.98 1020.15c176.52,-294.85 282.08,-700.26 286.93,-1098.84l-51.59 -1011.75c-188.82,280.17 -395.88,908.5 -638.32,1090.44z"/>
   <path class="fil5" d="M11405.56 20137.58c45.72,113.86 484.35,330.11 607.84,353.24 326.3,61.1 712.89,18.05 547.25,-367.17 -185.72,-431.9 -1401.23,-599.06 -1155.09,13.93z"/>
   <path class="fil2" d="M11759.22 11613.26c-20.64,-529.58 159.51,-862.93 301.11,-1314.75 -330.81,200.3 -1090.91,1170.79 -1169.93,1814.98 224.24,-145.06 655.54,-357.27 868.82,-500.23z"/>
   <path class="fil1" d="M8106.26 18620.64c96.99,375.39 491.94,705.6 977.76,599.65 708.64,-154.54 640.82,-1128.09 346.09,-716.2 -130.69,182.62 -50.75,372.73 -405.26,443.4 -248.69,49.57 -478.46,-59.04 -572.24,-191.91 -172.87,-244.92 -42.07,-566.32 -149.79,-661.7 -234.87,-207.96 -230.14,396.74 -196.56,526.76z"/>
   <path class="fil2" d="M14436.87 22379.96c-320.63,-135.63 -701.33,-801.68 -908.42,-1162.79 -75.58,89.9 -339.83,454.79 -375.64,544.27 185.43,209.22 299.88,315.31 529.22,479.41 148.65,106.36 562.09,315.98 754.84,139.11z"/>
   <path class="fil0" d="M9951.07 24285.64c43.82,326.62 565.34,366.75 820.6,151.84 146.88,-123.66 412.67,-459.95 504.68,-720.46 -83.58,-73.81 16.98,-31.32 -91.86,-23.78l-1233.42 592.4z"/>
   <path class="fil6" d="M6878.12 16571.5c-545.83,175.97 -298.64,939.59 242.28,758.19 451.5,-151.41 274.8,-924.89 -242.28,-758.19z"/>
   <path class="fil6" d="M11682.78 17827.1c-478.88,164.63 -241.91,982.42 310.4,745.18 422.54,-181.49 213.96,-925.44 -310.4,-745.18z"/>
   <path class="fil4" d="M13019.42 16983.69c116.85,-369.52 -143.71,-564.4 -338.13,-374.97 -180.76,176.13 -45.72,489.37 338.13,374.97z"/>
   <path class="fil4" d="M10965.55 14761.5c399.79,126.41 479.12,-212.75 311.75,-348.43 -217.08,-175.96 -421.4,39.97 -311.75,348.43z"/>
   <path class="fil6" d="M6037.65 17684.21c302.07,138.49 493.54,-90.39 356.79,-290.15 -97.41,-142.28 -480.64,-156.16 -356.79,290.15z"/>
   <path class="fil6" d="M10824.5 18797.03c34.94,268.43 500.86,183.9 409.34,-132.42 -65.59,-226.72 -448.88,-171.35 -409.34,132.42z"/>
  </g>
 </g>
</svg>
